<?xml version="1.0" encoding="UTF-8"?>
<svg width="112px" height="35px" viewBox="0 0 112 35" version="1.1" xmlns="http://www.w3.org/2000/svg" xmlns:xlink="http://www.w3.org/1999/xlink">
    <!-- Generator: Sketch 43.2 (39069) - http://www.bohemiancoding.com/sketch -->
    <title>atoms/brand/logo/pointr-logo</title>
    <desc>Created with Sketch.</desc>
    <defs></defs>
    <g id="Symbols" stroke="none" stroke-width="1" fill="none" fill-rule="evenodd">
        <g id="atoms/brand/logo/pointr-logo">
            <g id="-g-pointr-logo">
                <path d="M19.6620425,20.597193 C17.9100207,20.597193 16.4897264,19.1683333 16.4897264,17.4057456 C16.4897264,15.6431579 17.9100207,14.2142982 19.6620425,14.2142982 C21.4140643,14.2142982 22.8343586,15.6431579 22.8343586,17.4057456 C22.8343586,19.1683333 21.4140643,20.597193 19.6620425,20.597193 M22.0900316,11.5085526 C18.8527128,10.1595175 15.1411488,11.7062719 13.8002005,14.963114 C13.4587074,15.7926754 13.3048981,16.6529386 13.3174104,17.4972368 L13.3174104,32.8373684 L21.6188381,24.4689912 L24.0858899,21.9821491 C24.687394,21.3942105 25.1826965,20.6770175 25.5238845,19.8483772 C26.8648327,16.5915351 25.3273504,12.8575877 22.0900316,11.5085526" id="Fill-1" fill="#CC3247"></path>
                <path d="M1.24634332,24.341057 C-2.14325886,15.2514956 1.58173297,4.95504825 9.98600545,0.183995614 C10.7098856,-0.22679386 11.6296894,0.0765394737 11.9809482,0.834258772 L12.8687084,2.74943421 C4.82240872,6.52390789 1.34125341,16.1458377 5.09279564,24.2403553 L3.19001635,25.1331623 C2.43683924,25.4862325 1.53809264,25.1236447 1.24634332,24.341057" id="Fill-3" fill="#6DB4CE"></path>
                <path d="M27.3431368,33.9773553 L26.4559869,32.0631009 C34.489164,28.2941535 37.9773384,18.6528816 34.2312894,10.5709518 L36.1343738,9.67814474 C36.8872458,9.32507456 37.7859924,9.68766228 38.0777417,10.47025 C41.467649,19.5598114 37.742352,29.8562588 29.3380796,34.6276184 C28.6141995,35.0384079 27.6943956,34.7350746 27.3431368,33.9773553" id="Fill-5" fill="#6DB4CE"></path>
                <path d="M8.15991717,22.8016711 C6.7274158,19.7106184 6.57665831,16.2434693 7.73602616,13.0388202 C8.89569918,9.83417105 11.2263368,7.27548684 14.2985548,5.83403947 L14.9134866,7.1609693 C15.0737046,7.50667105 14.9366801,7.91469737 14.6037319,8.09706579 C12.3487782,9.33311842 10.6394812,11.3284254 9.75355204,13.7775044 C8.86731771,16.2268904 8.9021079,18.8604868 9.83961199,21.2653553 C9.97785722,21.6202675 9.82221689,22.0215395 9.47919782,22.1827237 L8.15991717,22.8016711 Z" id="Fill-8" fill="#6DB4CE"></path>
                <path d="M25.0257439,28.9771754 L24.4102016,27.6496316 C24.250594,27.3048509 24.386703,26.8971316 24.7187357,26.7147632 C29.362921,24.1655965 31.4124905,18.5005088 29.4837711,13.5446316 C29.3458311,13.1903333 29.5020817,12.7896754 29.8447956,12.6287982 L31.1643815,12.0095439 C34.1215477,18.3902895 31.3679346,26.0018684 25.0257439,28.9771754" id="Fill-10" fill="#6DB4CE"></path>
                <path d="M50.4744327,19.7430702 C51.9762093,19.7430702 52.8557297,19.6752193 53.4953809,19.3025 C54.1594463,18.9187281 54.5100948,18.269693 54.5100948,17.4257018 C54.5100948,16.4453947 54.1237406,15.7641228 53.361103,15.4009211 C52.6991738,15.0892982 51.8010376,15.0303509 50.3755553,15.0303509 L49.2375499,15.0303509 L49.2375499,19.7430702 L50.4744327,19.7430702 Z M45.6523292,30.2160526 C45.2375935,30.2160526 44.9003728,29.8767982 44.9003728,29.4598684 L44.9003728,11.7775 C44.9003728,11.3605702 45.2375935,11.0210088 45.6523292,11.0210088 L50.424994,11.0210088 C52.9402638,11.0210088 54.5616698,11.3234211 55.8461602,12.0320175 C56.9667706,12.6472807 58.8475771,14.139693 58.8475771,17.2178509 C58.8475771,19.4271491 57.8990866,21.2299561 56.176667,22.295 C54.8174082,23.134693 53.0528741,23.4926754 50.2766779,23.4926754 L49.2375499,23.4926754 L49.2375499,29.4598684 C49.2375499,29.8767982 48.9003292,30.2160526 48.4858986,30.2160526 L45.6523292,30.2160526 Z" id="Fill-12" fill="#06284C"></path>
                <path d="M88.4315074,30.2162061 C88.0167717,30.2162061 87.679551,29.8769518 87.679551,29.4600219 L87.679551,22.6951974 C87.679551,21.6921711 87.5361177,21.3151535 87.3044883,21.0317763 C87.042036,20.7146272 86.6706354,20.5598904 86.1704501,20.5598904 C85.2405755,20.5598904 84.390352,21.0683114 83.8187553,21.5199342 L83.8187553,29.4600219 C83.8187553,29.8769518 83.4815346,30.2162061 83.0671041,30.2162061 L80.40657,30.2162061 C79.9921395,30.2162061 79.6549188,29.8769518 79.6549188,29.4600219 L79.6549188,17.7994956 C79.6549188,17.3825658 79.9921395,17.0433114 80.40657,17.0433114 L83.0173602,17.0433114 C83.4320959,17.0433114 83.7693166,17.3825658 83.7693166,17.7994956 L83.7693166,18.0580044 C84.5957362,17.4203289 85.8286518,16.7577851 87.3838343,16.7577851 C88.7269188,16.7577851 89.9137526,17.2413377 90.7249134,18.1197149 C91.5095237,18.996864 91.8436926,20.1702851 91.8436926,22.0461623 L91.8436926,29.4600219 C91.8436926,29.8769518 91.5064719,30.2162061 91.0920414,30.2162061 L88.4315074,30.2162061 Z" id="Fill-14" fill="#06284C"></path>
                <path d="M99.2684687,30.5017939 C97.9018856,30.5017939 96.7235967,30.0265307 95.9499728,29.1631974 C95.1778747,28.2915746 94.8336349,27.073636 94.8336349,25.2131096 L94.8336349,20.7153026 L93.6043815,20.7153026 C93.1896458,20.7153026 92.8524251,20.3760482 92.8524251,19.9591184 L92.8524251,17.799557 C92.8524251,17.3826272 93.1896458,17.0433728 93.6043815,17.0433728 L94.8336349,17.0433728 L94.8336349,14.38675 C94.8336349,14.019557 95.0945613,13.7063991 95.4534496,13.6419254 L98.1139837,13.1651272 C98.1588447,13.1571447 98.2034005,13.1531535 98.2470409,13.1531535 C98.6611662,13.1531535 98.9977766,13.4927149 98.9977766,13.9096447 L98.9977766,17.0433728 L101.465744,17.0433728 C101.88048,17.0433728 102.2177,17.3826272 102.2177,17.799557 L102.2177,19.9591184 C102.2177,20.3760482 101.88048,20.7153026 101.465744,20.7153026 L98.9977766,20.7153026 L98.9977766,24.7977149 C98.9977766,26.2038553 99.3490354,26.7776711 100.20994,26.7776711 C100.509624,26.7776711 100.851117,26.7122763 101.225264,26.583943 C101.304305,26.5566184 101.386093,26.5428026 101.46849,26.5428026 C101.881395,26.5428026 102.2177,26.882057 102.2177,27.2986798 L102.2177,29.278636 C102.2177,29.5641623 102.058093,29.8281974 101.81151,29.9510044 C101.13127,30.2908728 100.156839,30.5017939 99.2684687,30.5017939" id="Fill-16" fill="#06284C"></path>
                <path d="M104.212551,30.2162061 C103.798121,30.2162061 103.4609,29.8769518 103.4609,29.4600219 L103.4609,17.7994956 C103.4609,17.3825658 103.798121,17.0433114 104.212551,17.0433114 L106.798622,17.0433114 C107.213053,17.0433114 107.550274,17.3825658 107.550274,17.7994956 L107.550274,18.4491447 C108.410263,17.4123465 109.548878,16.8873465 110.942012,16.8873465 C111.040279,16.8873465 111.142513,16.8913377 111.247189,16.9005482 C111.632323,16.9346272 111.934143,17.2662061 111.934143,17.6558114 L111.934143,20.2436623 C111.934143,20.6615132 111.601805,21.0007675 111.193478,21.0010746 C111.168148,21.0010746 111.142819,20.9998465 111.116878,20.9970833 C110.980769,20.9826535 110.847102,20.9752851 110.719233,20.9752851 C109.401478,20.9752851 108.416061,21.4133991 107.624432,22.3528728 L107.624432,29.4600219 C107.624432,29.8769518 107.287211,30.2162061 106.872475,30.2162061 L104.212551,30.2162061 Z" id="Fill-18" fill="#06284C"></path>
                <path d="M65.6757014,20.4993465 C63.9599956,20.4993465 62.5641155,21.9036447 62.5641155,23.6296974 C62.5641155,25.356057 63.9599956,26.7600482 65.6757014,26.7600482 C67.3914071,26.7600482 68.786982,25.356057 68.786982,23.6296974 C68.786982,21.9036447 67.3914071,20.4993465 65.6757014,20.4993465 L65.6757014,20.4993465 Z M65.6781428,30.4943026 C62.9080501,30.4943026 60.4330638,28.8305746 59.3731837,26.2559254 C58.675854,24.5624167 58.675854,22.6969781 59.3731837,21.0034693 C60.0705134,19.3096535 61.3815542,17.9907061 63.0652163,17.2891711 C63.8998757,16.9413202 64.7769548,16.7650921 65.6729548,16.7650921 C68.4430474,16.7650921 70.9177286,18.4288202 71.9782191,21.0034693 C73.4174343,24.4994781 71.7615433,28.5217149 68.2861864,29.9702237 C67.451527,30.3177675 66.5741428,30.4943026 65.678448,30.4943026 L65.6781428,30.4943026 Z" id="Fill-21" fill="#06284C"></path>
                <path d="M74.4483226,30.2161447 C74.0341973,30.2161447 73.6966714,29.8768904 73.6966714,29.4599605 L73.6966714,17.7994342 C73.6966714,17.3825044 74.0341973,17.04325 74.4483226,17.04325 L77.1091619,17.04325 C77.5232872,17.04325 77.8605079,17.3825044 77.8605079,17.7994342 L77.8605079,29.4599605 C77.8605079,29.8768904 77.5232872,30.2161447 77.1091619,30.2161447 L74.4483226,30.2161447 Z" id="Fill-23" fill="#06284C"></path>
                <path d="M75.7788033,15.2102632 C74.6310322,15.2102632 73.696885,14.2707895 73.696885,13.1157895 C73.696885,11.9607895 74.6310322,11.0210088 75.7788033,11.0210088 C76.9265744,11.0210088 77.8607215,11.9607895 77.8607215,13.1157895 C77.8607215,14.2707895 76.9265744,15.2102632 75.7788033,15.2102632" id="Fill-25" fill="#06284C"></path>
            </g>
        </g>
    </g>
</svg>